<svg id="visual" viewBox="0 0 1500 800" width="1500" height="800" xmlns="http://www.w3.org/2000/svg" xmlns:xlink="http://www.w3.org/1999/xlink" version="1.1"><path d="M0 692L22.7 673.8C45.3 655.7 90.7 619.3 136.2 609.7C181.7 600 227.3 617 272.8 641C318.3 665 363.7 696 409 683.5C454.3 671 499.7 615 545.2 606.5C590.7 598 636.3 637 681.8 665C727.3 693 772.7 710 818.2 705.8C863.7 701.7 909.3 676.3 954.8 649.7C1000.3 623 1045.7 595 1091 591.5C1136.3 588 1181.7 609 1227.2 611.2C1272.7 613.3 1318.3 596.7 1363.8 585.2C1409.3 573.7 1454.7 567.3 1477.3 564.2L1500 561L1500 801L1477.3 801C1454.7 801 1409.3 801 1363.8 801C1318.3 801 1272.7 801 1227.2 801C1181.7 801 1136.3 801 1091 801C1045.7 801 1000.3 801 954.8 801C909.3 801 863.7 801 818.2 801C772.7 801 727.3 801 681.8 801C636.3 801 590.7 801 545.2 801C499.7 801 454.3 801 409 801C363.7 801 318.3 801 272.8 801C227.3 801 181.7 801 136.2 801C90.7 801 45.3 801 22.7 801L0 801Z" fill="#0066FF" stroke-linecap="round" stroke-linejoin="miter"></path></svg>