<svg id="visual" viewBox="0 0 1500 800" width="1500" height="800" xmlns="http://www.w3.org/2000/svg" xmlns:xlink="http://www.w3.org/1999/xlink" version="1.1"><rect x="0" y="0" width="1500" height="800" fill="#ffffff"></rect><g transform="translate(746.2906872596723 450.0914881268478)"><path d="M124.3 -237.4C163 -193 197.6 -163.5 232.8 -126.4C268.1 -89.3 304 -44.7 311 4C317.9 52.7 295.8 105.3 263.1 146.9C230.4 188.5 187.2 218.9 141.6 234.3C96 249.6 48 249.8 0.2 249.5C-47.7 249.2 -95.3 248.5 -148.4 237.5C-201.6 226.5 -260.1 205.2 -285.8 163.9C-311.5 122.7 -304.2 61.3 -302.9 0.8C-301.6 -59.8 -306.3 -119.7 -282.8 -164.7C-259.3 -209.7 -207.6 -240 -155.8 -276.7C-104 -313.5 -52 -356.7 -4.6 -348.8C42.8 -340.9 85.7 -281.7 124.3 -237.4" fill="#203842"></path></g></svg>