<svg id="visual" viewBox="0 0 1500 700" width="1500" height="700" xmlns="http://www.w3.org/2000/svg" xmlns:xlink="http://www.w3.org/1999/xlink" version="1.1"><path d="M0 111L8 103.2C16 95.3 32 79.7 48.2 76.5C64.3 73.3 80.7 82.7 96.8 103.3C113 124 129 156 145.2 153.3C161.3 150.7 177.7 113.3 193.8 101.3C210 89.3 226 102.7 242 99.7C258 96.7 274 77.3 290.2 65.7C306.3 54 322.7 50 338.8 58C355 66 371 86 387 96.2C403 106.3 419 106.7 435.2 118.2C451.3 129.7 467.7 152.3 483.8 137.5C500 122.7 516 70.3 532.2 62.2C548.3 54 564.7 90 580.8 114.3C597 138.7 613 151.3 629 158C645 164.7 661 165.3 677.2 155.2C693.3 145 709.7 124 725.8 131C742 138 758 173 774.2 187.2C790.3 201.3 806.7 194.7 822.8 176.8C839 159 855 130 871 110.5C887 91 903 81 919.2 82.2C935.3 83.3 951.7 95.7 967.8 88.8C984 82 1000 56 1016.2 60.5C1032.3 65 1048.7 100 1064.8 97.3C1081 94.7 1097 54.3 1113 64.5C1129 74.7 1145 135.3 1161.2 137.7C1177.3 140 1193.7 84 1209.8 64.3C1226 44.7 1242 61.3 1258 75.7C1274 90 1290 102 1306.2 121.2C1322.3 140.3 1338.7 166.7 1354.8 162C1371 157.3 1387 121.7 1403.2 93.3C1419.3 65 1435.7 44 1451.8 56C1468 68 1484 113 1492 135.5L1500 158L1500 0L1492 0C1484 0 1468 0 1451.8 0C1435.7 0 1419.3 0 1403.2 0C1387 0 1371 0 1354.8 0C1338.7 0 1322.3 0 1306.2 0C1290 0 1274 0 1258 0C1242 0 1226 0 1209.8 0C1193.7 0 1177.3 0 1161.2 0C1145 0 1129 0 1113 0C1097 0 1081 0 1064.8 0C1048.7 0 1032.3 0 1016.2 0C1000 0 984 0 967.8 0C951.7 0 935.3 0 919.2 0C903 0 887 0 871 0C855 0 839 0 822.8 0C806.7 0 790.3 0 774.2 0C758 0 742 0 725.8 0C709.7 0 693.3 0 677.2 0C661 0 645 0 629 0C613 0 597 0 580.8 0C564.7 0 548.3 0 532.2 0C516 0 500 0 483.8 0C467.7 0 451.3 0 435.2 0C419 0 403 0 387 0C371 0 355 0 338.8 0C322.7 0 306.3 0 290.2 0C274 0 258 0 242 0C226 0 210 0 193.8 0C177.7 0 161.3 0 145.2 0C129 0 113 0 96.8 0C80.7 0 64.3 0 48.2 0C32 0 16 0 8 0L0 0Z" fill="#ffffff" stroke-linecap="round" stroke-linejoin="miter"></path></svg>