<svg id="visual" viewBox="0 0 1500 700" width="1500" height="700" xmlns="http://www.w3.org/2000/svg" xmlns:xlink="http://www.w3.org/1999/xlink" version="1.1"><g stroke-width="40" stroke-linejoin="bevel"><path d="M757.7 311.3L735.3 263.1L725.7 280.1Z" fill="#ffffff" stroke="#FFFFFF"></path><path d="M777.3 180.3L725 213.3L735.3 263.1Z" fill="#fbfbfb" stroke="#FFFFFF"></path><path d="M735.3 263.1L725 213.3L725.7 280.1Z" fill="#fbfbfb" stroke="#FFFFFF"></path><path d="M730.7 441.9L790 360.1L757.7 311.3Z" fill="#fafafa" stroke="#FFFFFF"></path><path d="M757.7 311.3L842 310.9L735.3 263.1Z" fill="#ffffff" stroke="#FFFFFF"></path><path d="M790 360.1L842 310.9L757.7 311.3Z" fill="#fbfbfb" stroke="#FFFFFF"></path><path d="M842 310.9L777.3 180.3L735.3 263.1Z" fill="#fafafa" stroke="#FFFFFF"></path><path d="M876.7 200.3L824 166.6L777.3 180.3Z" fill="#fbfbfb" stroke="#FFFFFF"></path><path d="M583.3 324.9L639.3 377.1L725.7 280.1Z" fill="#fbfbfb" stroke="#FFFFFF"></path><path d="M725.7 280.1L639.3 377.1L757.7 311.3Z" fill="#ffffff" stroke="#FFFFFF"></path><path d="M730.7 441.9L835.3 407.7L790 360.1Z" fill="#fefefe" stroke="#FFFFFF"></path><path d="M790 360.1L835.3 407.7L842 310.9Z" fill="#fdfdfd" stroke="#FFFFFF"></path><path d="M915.7 334.1L876.7 200.3L842 310.9Z" fill="#fafafa" stroke="#FFFFFF"></path><path d="M842 310.9L876.7 200.3L777.3 180.3Z" fill="#fefefe" stroke="#FFFFFF"></path><path d="M639.3 377.1L730.7 441.9L757.7 311.3Z" fill="#fdfdfd" stroke="#FFFFFF"></path><path d="M835.3 407.7L900 355.9L842 310.9Z" fill="#fdfdfd" stroke="#FFFFFF"></path><path d="M900 355.9L915.7 334.1L842 310.9Z" fill="#fcfcfc" stroke="#FFFFFF"></path><path d="M749.7 108.8L647.3 147.3L725 213.3Z" fill="#fefefe" stroke="#FFFFFF"></path><path d="M591 193.3L583.3 324.9L725.7 280.1Z" fill="#fefefe" stroke="#FFFFFF"></path><path d="M749.7 108.8L725 213.3L777.3 180.3Z" fill="#fbfbfb" stroke="#FFFFFF"></path><path d="M591 193.3L725.7 280.1L725 213.3Z" fill="#fdfdfd" stroke="#FFFFFF"></path><path d="M860.3 43.8L749.7 108.8L824 166.6Z" fill="#fdfdfd" stroke="#FFFFFF"></path><path d="M824 166.6L749.7 108.8L777.3 180.3Z" fill="#fafafa" stroke="#FFFFFF"></path><path d="M835.3 407.7L905 380.1L900 355.9Z" fill="#fcfcfc" stroke="#FFFFFF"></path><path d="M900 355.9L905 380.1L915.7 334.1Z" fill="#fafafa" stroke="#FFFFFF"></path><path d="M647.3 147.3L591 193.3L725 213.3Z" fill="#fbfbfb" stroke="#FFFFFF"></path><path d="M835.7 543.7L864.3 433.9L835.3 407.7Z" fill="#fdfdfd" stroke="#FFFFFF"></path><path d="M835.3 407.7L864.3 433.9L905 380.1Z" fill="#fefefe" stroke="#FFFFFF"></path><path d="M915.7 334.1L918.7 195.6L876.7 200.3Z" fill="#fefefe" stroke="#FFFFFF"></path><path d="M876.7 200.3L894.3 75.6L824 166.6Z" fill="#fdfdfd" stroke="#FFFFFF"></path><path d="M575.7 509.7L702 498.4L639.3 377.1Z" fill="#fefefe" stroke="#FFFFFF"></path><path d="M639.3 377.1L702 498.4L730.7 441.9Z" fill="#ffffff" stroke="#FFFFFF"></path><path d="M730.7 441.9L835.7 543.7L835.3 407.7Z" fill="#ffffff" stroke="#FFFFFF"></path><path d="M470 336.1L553.3 431.7L583.3 324.9Z" fill="#fbfbfb" stroke="#FFFFFF"></path><path d="M583.3 324.9L553.3 431.7L639.3 377.1Z" fill="#fbfbfb" stroke="#FFFFFF"></path><path d="M918.7 195.6L894.3 75.6L876.7 200.3Z" fill="#fafafa" stroke="#FFFFFF"></path><path d="M992.7 427.9L987 382.7L905 380.1Z" fill="#ffffff" stroke="#FFFFFF"></path><path d="M905 380.1L987 382.7L915.7 334.1Z" fill="#fdfdfd" stroke="#FFFFFF"></path><path d="M1051.3 235.6L1018 186.6L918.7 195.6Z" fill="#fafafa" stroke="#FFFFFF"></path><path d="M918.7 195.6L941.7 71.8L894.3 75.6Z" fill="#fdfdfd" stroke="#FFFFFF"></path><path d="M740 631.2L741 538.7L579.3 599.2Z" fill="#fbfbfb" stroke="#FFFFFF"></path><path d="M702 498.4L741 538.7L730.7 441.9Z" fill="#ffffff" stroke="#FFFFFF"></path><path d="M864.3 433.9L992.7 427.9L905 380.1Z" fill="#fefefe" stroke="#FFFFFF"></path><path d="M647.3 147.3L588.7 78.6L591 193.3Z" fill="#fbfbfb" stroke="#FFFFFF"></path><path d="M591 193.3L470 336.1L583.3 324.9Z" fill="#fafafa" stroke="#FFFFFF"></path><path d="M602.3 48.8L588.7 78.6L647.3 147.3Z" fill="#fbfbfb" stroke="#FFFFFF"></path><path d="M602.3 48.8L647.3 147.3L676.3 0Z" fill="#fcfcfc" stroke="#FFFFFF"></path><path d="M894.3 75.6L860.3 43.8L824 166.6Z" fill="#fbfbfb" stroke="#FFFFFF"></path><path d="M741 538.7L835.7 543.7L730.7 441.9Z" fill="#fefefe" stroke="#FFFFFF"></path><path d="M676.3 0L647.3 147.3L749.7 108.8Z" fill="#fbfbfb" stroke="#FFFFFF"></path><path d="M1007.3 494.7L992.7 427.9L864.3 433.9Z" fill="#fbfbfb" stroke="#FFFFFF"></path><path d="M602.3 48.8L579.3 61.6L588.7 78.6Z" fill="#fafafa" stroke="#FFFFFF"></path><path d="M588.7 78.6L492 120.8L591 193.3Z" fill="#fefefe" stroke="#FFFFFF"></path><path d="M918.7 195.6L915.7 334.1L1051.3 235.6Z" fill="#fcfcfc" stroke="#FFFFFF"></path><path d="M1040 196.3L1018 186.6L1051.3 235.6Z" fill="#fdfdfd" stroke="#FFFFFF"></path><path d="M894.3 75.6L941.7 71.8L860.3 43.8Z" fill="#fdfdfd" stroke="#FFFFFF"></path><path d="M798 0L753.7 0L749.7 108.8Z" fill="#fcfcfc" stroke="#FFFFFF"></path><path d="M1018 186.6L941.7 71.8L918.7 195.6Z" fill="#fdfdfd" stroke="#FFFFFF"></path><path d="M860.3 43.8L798 0L749.7 108.8Z" fill="#fafafa" stroke="#FFFFFF"></path><path d="M553.3 431.7L575.7 509.7L639.3 377.1Z" fill="#fafafa" stroke="#FFFFFF"></path><path d="M441.7 320.3L470 336.1L591 193.3Z" fill="#fcfcfc" stroke="#FFFFFF"></path><path d="M553.3 431.7L511 465.4L575.7 509.7Z" fill="#fafafa" stroke="#FFFFFF"></path><path d="M575.7 509.7L580.3 514.4L702 498.4Z" fill="#fafafa" stroke="#FFFFFF"></path><path d="M804.3 0L798 0L860.3 43.8Z" fill="#fbfbfb" stroke="#FFFFFF"></path><path d="M830.7 0L804.3 0L860.3 43.8Z" fill="#fefefe" stroke="#FFFFFF"></path><path d="M753.7 0L676.3 0L749.7 108.8Z" fill="#fafafa" stroke="#FFFFFF"></path><path d="M602.3 48.8L586 0L579.3 61.6Z" fill="#fcfcfc" stroke="#FFFFFF"></path><path d="M849 -13.2L830.7 0L860.3 43.8Z" fill="#fcfcfc" stroke="#FFFFFF"></path><path d="M1051.3 235.6L915.7 334.1L987 382.7Z" fill="#fbfbfb" stroke="#FFFFFF"></path><path d="M1018 186.6L1054 50.8L941.7 71.8Z" fill="#fefefe" stroke="#FFFFFF"></path><path d="M477 427.7L511 465.4L553.3 431.7Z" fill="#fbfbfb" stroke="#FFFFFF"></path><path d="M575.7 509.7L579.3 599.2L580.3 514.4Z" fill="#fcfcfc" stroke="#FFFFFF"></path><path d="M1071.7 332.3L1051.3 235.6L987 382.7Z" fill="#fefefe" stroke="#FFFFFF"></path><path d="M579.3 61.6L492 120.8L588.7 78.6Z" fill="#fbfbfb" stroke="#FFFFFF"></path><path d="M470 336.1L477 427.7L553.3 431.7Z" fill="#fcfcfc" stroke="#FFFFFF"></path><path d="M941.7 71.8L849 -13.2L860.3 43.8Z" fill="#fdfdfd" stroke="#FFFFFF"></path><path d="M830.7 0L849 -13.2L804.3 0Z" fill="#fafafa" stroke="#FFFFFF"></path><path d="M804.3 0L849 -13.2L798 0Z" fill="#fbfbfb" stroke="#FFFFFF"></path><path d="M798 0L849 -13.2L753.7 0Z" fill="#fdfdfd" stroke="#FFFFFF"></path><path d="M753.7 0L849 -13.2L676.3 0Z" fill="#fdfdfd" stroke="#FFFFFF"></path><path d="M427.3 151.3L441.7 320.3L591 193.3Z" fill="#fafafa" stroke="#FFFFFF"></path><path d="M470 336.1L441.7 427.7L477 427.7Z" fill="#fbfbfb" stroke="#FFFFFF"></path><path d="M836.3 598.4L886.7 574.4L835.7 543.7Z" fill="#fdfdfd" stroke="#FFFFFF"></path><path d="M835.7 543.7L886.7 574.4L864.3 433.9Z" fill="#fefefe" stroke="#FFFFFF"></path><path d="M836.3 598.4L835.7 543.7L749.7 613.4Z" fill="#fefefe" stroke="#FFFFFF"></path><path d="M1086.3 434.9L987 382.7L992.7 427.9Z" fill="#fafafa" stroke="#FFFFFF"></path><path d="M1086.3 434.9L1071.7 332.3L987 382.7Z" fill="#fdfdfd" stroke="#FFFFFF"></path><path d="M749.7 613.4L835.7 543.7L741 538.7Z" fill="#ffffff" stroke="#FFFFFF"></path><path d="M740 631.2L749.7 613.4L741 538.7Z" fill="#ffffff" stroke="#FFFFFF"></path><path d="M849 -13.2L586 0L676.3 0Z" fill="#fbfbfb" stroke="#FFFFFF"></path><path d="M676.3 0L586 0L602.3 48.8Z" fill="#ffffff" stroke="#FFFFFF"></path><path d="M579.3 61.6L473.7 0L492 120.8Z" fill="#fbfbfb" stroke="#FFFFFF"></path><path d="M886.7 574.4L1007.3 494.7L864.3 433.9Z" fill="#ffffff" stroke="#FFFFFF"></path><path d="M441.7 320.3L441.7 427.7L470 336.1Z" fill="#fdfdfd" stroke="#FFFFFF"></path><path d="M477 427.7L426.7 487.9L511 465.4Z" fill="#fafafa" stroke="#FFFFFF"></path><path d="M440 602.2L579.3 599.2L575.7 509.7Z" fill="#ffffff" stroke="#FFFFFF"></path><path d="M579.3 599.2L741 538.7L702 498.4Z" fill="#fafafa" stroke="#FFFFFF"></path><path d="M749.7 613.4L842 700L836.3 598.4Z" fill="#fafafa" stroke="#FFFFFF"></path><path d="M579.3 599.2L702 498.4L580.3 514.4Z" fill="#fcfcfc" stroke="#FFFFFF"></path><path d="M442 118.6L427.3 151.3L492 120.8Z" fill="#fdfdfd" stroke="#FFFFFF"></path><path d="M492 120.8L427.3 151.3L591 193.3Z" fill="#fbfbfb" stroke="#FFFFFF"></path><path d="M330 395.1L405 444.9L441.7 427.7Z" fill="#fefefe" stroke="#FFFFFF"></path><path d="M473.7 0L442 118.6L492 120.8Z" fill="#ffffff" stroke="#FFFFFF"></path><path d="M442 118.6L424.7 137.8L427.3 151.3Z" fill="#fdfdfd" stroke="#FFFFFF"></path><path d="M427.3 151.3L393.3 261.1L441.7 320.3Z" fill="#fefefe" stroke="#FFFFFF"></path><path d="M440 602.2L575.7 509.7L511 465.4Z" fill="#fefefe" stroke="#FFFFFF"></path><path d="M332.7 149.6L393.3 261.1L427.3 151.3Z" fill="#fcfcfc" stroke="#FFFFFF"></path><path d="M886.7 574.4L994.3 554.4L1007.3 494.7Z" fill="#fefefe" stroke="#FFFFFF"></path><path d="M1007.3 494.7L1086.3 434.9L992.7 427.9Z" fill="#fefefe" stroke="#FFFFFF"></path><path d="M972 632.4L994.3 554.4L886.7 574.4Z" fill="#ffffff" stroke="#FFFFFF"></path><path d="M904.3 629.2L886.7 574.4L836.3 598.4Z" fill="#fefefe" stroke="#FFFFFF"></path><path d="M1116.7 615.4L1086.3 434.9L1007.3 494.7Z" fill="#fdfdfd" stroke="#FFFFFF"></path><path d="M892.7 662.2L904.3 629.2L836.3 598.4Z" fill="#ffffff" stroke="#FFFFFF"></path><path d="M1040 196.3L1054 50.8L1018 186.6Z" fill="#fefefe" stroke="#FFFFFF"></path><path d="M941.7 71.8L1037 0L849 -13.2Z" fill="#fbfbfb" stroke="#FFFFFF"></path><path d="M1129.7 58.8L1054 50.8L1040 196.3Z" fill="#fbfbfb" stroke="#FFFFFF"></path><path d="M1204.7 165.6L1040 196.3L1051.3 235.6Z" fill="#fbfbfb" stroke="#FFFFFF"></path><path d="M1135.3 321.3L1051.3 235.6L1071.7 332.3Z" fill="#fcfcfc" stroke="#FFFFFF"></path><path d="M330 395.1L441.7 427.7L441.7 320.3Z" fill="#fdfdfd" stroke="#FFFFFF"></path><path d="M441.7 427.7L426.7 487.9L477 427.7Z" fill="#fafafa" stroke="#FFFFFF"></path><path d="M1086.3 434.9L1135.3 321.3L1071.7 332.3Z" fill="#fafafa" stroke="#FFFFFF"></path><path d="M405 444.9L426.7 487.9L441.7 427.7Z" fill="#ffffff" stroke="#FFFFFF"></path><path d="M340.3 0L332.7 149.6L424.7 137.8Z" fill="#fbfbfb" stroke="#FFFFFF"></path><path d="M586 0L473.7 0L579.3 61.6Z" fill="#ffffff" stroke="#FFFFFF"></path><path d="M849 -13.2L473.7 0L586 0Z" fill="#fcfcfc" stroke="#FFFFFF"></path><path d="M1054 50.8L1037 0L941.7 71.8Z" fill="#fdfdfd" stroke="#FFFFFF"></path><path d="M842 700L892.7 662.2L836.3 598.4Z" fill="#fbfbfb" stroke="#FFFFFF"></path><path d="M904.3 629.2L972 632.4L886.7 574.4Z" fill="#fafafa" stroke="#FFFFFF"></path><path d="M842 700L749.7 613.4L740 631.2Z" fill="#ffffff" stroke="#FFFFFF"></path><path d="M968 664.2L972 632.4L904.3 629.2Z" fill="#fefefe" stroke="#FFFFFF"></path><path d="M1182.3 552.2L1155.7 440.9L1086.3 434.9Z" fill="#fbfbfb" stroke="#FFFFFF"></path><path d="M719.7 701.2L747.7 700L740 631.2Z" fill="#fdfdfd" stroke="#FFFFFF"></path><path d="M639.3 700L719.7 701.2L740 631.2Z" fill="#fafafa" stroke="#FFFFFF"></path><path d="M1236.7 377.1L1174.3 277.1L1135.3 321.3Z" fill="#ffffff" stroke="#FFFFFF"></path><path d="M1135.3 321.3L1174.3 277.1L1051.3 235.6Z" fill="#fefefe" stroke="#FFFFFF"></path><path d="M1054 50.8L1081.3 -5.2L1037 0Z" fill="#fefefe" stroke="#FFFFFF"></path><path d="M747.7 700L842 700L740 631.2Z" fill="#fafafa" stroke="#FFFFFF"></path><path d="M892.7 662.2L968 664.2L904.3 629.2Z" fill="#fbfbfb" stroke="#FFFFFF"></path><path d="M719.7 701.2L842 700L747.7 700Z" fill="#fefefe" stroke="#FFFFFF"></path><path d="M524 700L639.3 700L579.3 599.2Z" fill="#fafafa" stroke="#FFFFFF"></path><path d="M579.3 599.2L639.3 700L740 631.2Z" fill="#fefefe" stroke="#FFFFFF"></path><path d="M1176.7 442.7L1155.7 440.9L1182.3 552.2Z" fill="#fdfdfd" stroke="#FFFFFF"></path><path d="M1086.3 434.9L1155.7 440.9L1135.3 321.3Z" fill="#fdfdfd" stroke="#FFFFFF"></path><path d="M912 700L968 664.2L892.7 662.2Z" fill="#fcfcfc" stroke="#FFFFFF"></path><path d="M1116.7 615.4L1007.3 494.7L994.3 554.4Z" fill="#fefefe" stroke="#FFFFFF"></path><path d="M323.7 375.1L441.7 320.3L393.3 261.1Z" fill="#fbfbfb" stroke="#FFFFFF"></path><path d="M323.7 375.1L330 395.1L441.7 320.3Z" fill="#fdfdfd" stroke="#FFFFFF"></path><path d="M405 444.9L347.7 505.4L426.7 487.9Z" fill="#fefefe" stroke="#FFFFFF"></path><path d="M426.7 487.9L440 602.2L511 465.4Z" fill="#fcfcfc" stroke="#FFFFFF"></path><path d="M323.7 375.1L282.3 304.9L292 373.7Z" fill="#fdfdfd" stroke="#FFFFFF"></path><path d="M1113.3 0L1081.3 -5.2L1054 50.8Z" fill="#fcfcfc" stroke="#FFFFFF"></path><path d="M1037 0L1081.3 -5.2L849 -13.2Z" fill="#fefefe" stroke="#FFFFFF"></path><path d="M332.7 149.6L427.3 151.3L424.7 137.8Z" fill="#fefefe" stroke="#FFFFFF"></path><path d="M1204.7 165.6L1129.7 58.8L1040 196.3Z" fill="#fefefe" stroke="#FFFFFF"></path><path d="M1261 316.9L1192 266.1L1174.3 277.1Z" fill="#fdfdfd" stroke="#FFFFFF"></path><path d="M1174.3 277.1L1204.7 165.6L1051.3 235.6Z" fill="#fafafa" stroke="#FFFFFF"></path><path d="M1220.7 714.2L898.3 700L842 700Z" fill="#fbfbfb" stroke="#FFFFFF"></path><path d="M842 700L898.3 700L892.7 662.2Z" fill="#fdfdfd" stroke="#FFFFFF"></path><path d="M340.3 0L424.7 137.8L442 118.6Z" fill="#ffffff" stroke="#FFFFFF"></path><path d="M1220.7 714.2L912 700L898.3 700Z" fill="#fefefe" stroke="#FFFFFF"></path><path d="M898.3 700L912 700L892.7 662.2Z" fill="#fcfcfc" stroke="#FFFFFF"></path><path d="M345.3 552.2L440 602.2L426.7 487.9Z" fill="#fbfbfb" stroke="#FFFFFF"></path><path d="M1116.7 615.4L994.3 554.4L972 632.4Z" fill="#fbfbfb" stroke="#FFFFFF"></path><path d="M1155.7 440.9L1236.7 377.1L1135.3 321.3Z" fill="#fdfdfd" stroke="#FFFFFF"></path><path d="M1180.7 0L1113.3 0L1129.7 58.8Z" fill="#fdfdfd" stroke="#FFFFFF"></path><path d="M1129.7 58.8L1113.3 0L1054 50.8Z" fill="#fbfbfb" stroke="#FFFFFF"></path><path d="M316.3 454.4L347.7 505.4L405 444.9Z" fill="#fbfbfb" stroke="#FFFFFF"></path><path d="M316.3 454.4L405 444.9L330 395.1Z" fill="#fafafa" stroke="#FFFFFF"></path><path d="M1261 150.3L1204.7 165.6L1192 266.1Z" fill="#fcfcfc" stroke="#FFFFFF"></path><path d="M1192 266.1L1204.7 165.6L1174.3 277.1Z" fill="#fdfdfd" stroke="#FFFFFF"></path><path d="M292 373.7L330 395.1L323.7 375.1Z" fill="#fcfcfc" stroke="#FFFFFF"></path><path d="M292 373.7L316.3 454.4L330 395.1Z" fill="#fbfbfb" stroke="#FFFFFF"></path><path d="M282.3 304.9L323.7 375.1L393.3 261.1Z" fill="#fcfcfc" stroke="#FFFFFF"></path><path d="M267.3 166.6L282.3 304.9L393.3 261.1Z" fill="#fbfbfb" stroke="#FFFFFF"></path><path d="M440 602.2L524 700L579.3 599.2Z" fill="#fdfdfd" stroke="#FFFFFF"></path><path d="M639.3 700L524 700L719.7 701.2Z" fill="#fbfbfb" stroke="#FFFFFF"></path><path d="M387.7 700L524 700L440 602.2Z" fill="#fefefe" stroke="#FFFFFF"></path><path d="M912 700L982.7 700L968 664.2Z" fill="#fafafa" stroke="#FFFFFF"></path><path d="M968 664.2L1012.3 700L972 632.4Z" fill="#fbfbfb" stroke="#FFFFFF"></path><path d="M1220.7 714.2L982.7 700L912 700Z" fill="#fcfcfc" stroke="#FFFFFF"></path><path d="M316.7 531.2L345.3 552.2L347.7 505.4Z" fill="#fcfcfc" stroke="#FFFFFF"></path><path d="M347.7 505.4L345.3 552.2L426.7 487.9Z" fill="#fafafa" stroke="#FFFFFF"></path><path d="M316.7 531.2L347.7 505.4L316.3 454.4Z" fill="#fdfdfd" stroke="#FFFFFF"></path><path d="M1220.7 714.2L1012.3 700L982.7 700Z" fill="#fdfdfd" stroke="#FFFFFF"></path><path d="M982.7 700L1012.3 700L968 664.2Z" fill="#fafafa" stroke="#FFFFFF"></path><path d="M1012.3 700L1116.7 615.4L972 632.4Z" fill="#fafafa" stroke="#FFFFFF"></path><path d="M282.3 304.9L264.7 347.1L292 373.7Z" fill="#fefefe" stroke="#FFFFFF"></path><path d="M292 373.7L236.3 419.7L316.3 454.4Z" fill="#fefefe" stroke="#FFFFFF"></path><path d="M251 325.3L264.7 347.1L282.3 304.9Z" fill="#fbfbfb" stroke="#FFFFFF"></path><path d="M1244 477.4L1236.7 377.1L1176.7 442.7Z" fill="#fafafa" stroke="#FFFFFF"></path><path d="M1176.7 442.7L1236.7 377.1L1155.7 440.9Z" fill="#fdfdfd" stroke="#FFFFFF"></path><path d="M279 75.8L268.3 162.8L332.7 149.6Z" fill="#fcfcfc" stroke="#FFFFFF"></path><path d="M332.7 149.6L267.3 166.6L393.3 261.1Z" fill="#fafafa" stroke="#FFFFFF"></path><path d="M268.3 162.8L267.3 166.6L332.7 149.6Z" fill="#fdfdfd" stroke="#FFFFFF"></path><path d="M849 -13.2L340.3 0L473.7 0Z" fill="#ffffff" stroke="#FFFFFF"></path><path d="M473.7 0L340.3 0L442 118.6Z" fill="#fbfbfb" stroke="#FFFFFF"></path><path d="M183.7 502.7L316.7 531.2L316.3 454.4Z" fill="#ffffff" stroke="#FFFFFF"></path><path d="M349 700L387.7 700L440 602.2Z" fill="#fefefe" stroke="#FFFFFF"></path><path d="M152.7 196.3L251 325.3L282.3 304.9Z" fill="#fdfdfd" stroke="#FFFFFF"></path><path d="M264.7 347.1L236.3 419.7L292 373.7Z" fill="#fefefe" stroke="#FFFFFF"></path><path d="M1116.7 615.4L1182.3 552.2L1086.3 434.9Z" fill="#fcfcfc" stroke="#FFFFFF"></path><path d="M1344.7 360.1L1261 316.9L1236.7 377.1Z" fill="#fcfcfc" stroke="#FFFFFF"></path><path d="M1236.7 377.1L1261 316.9L1174.3 277.1Z" fill="#fafafa" stroke="#FFFFFF"></path><path d="M1257 27.8L1180.7 0L1129.7 58.8Z" fill="#fcfcfc" stroke="#FFFFFF"></path><path d="M1113.3 0L1180.7 0L1081.3 -5.2Z" fill="#ffffff" stroke="#FFFFFF"></path><path d="M1257 27.8L1129.7 58.8L1204.7 165.6Z" fill="#fafafa" stroke="#FFFFFF"></path><path d="M340.3 0L279 75.8L332.7 149.6Z" fill="#fdfdfd" stroke="#FFFFFF"></path><path d="M268.3 162.8L239 155.6L267.3 166.6Z" fill="#fbfbfb" stroke="#FFFFFF"></path><path d="M1326 185.6L1261 150.3L1192 266.1Z" fill="#fafafa" stroke="#FFFFFF"></path><path d="M1182.3 552.2L1244 477.4L1176.7 442.7Z" fill="#fafafa" stroke="#FFFFFF"></path><path d="M279 75.8L239 155.6L268.3 162.8Z" fill="#fafafa" stroke="#FFFFFF"></path><path d="M267.3 166.6L152.7 196.3L282.3 304.9Z" fill="#fbfbfb" stroke="#FFFFFF"></path><path d="M193 410.9L264.7 347.1L251 325.3Z" fill="#fefefe" stroke="#FFFFFF"></path><path d="M193 410.9L236.3 419.7L264.7 347.1Z" fill="#fefefe" stroke="#FFFFFF"></path><path d="M340.3 0L297 0L279 75.8Z" fill="#fefefe" stroke="#FFFFFF"></path><path d="M99.7 156.8L152.7 196.3L239 155.6Z" fill="#fdfdfd" stroke="#FFFFFF"></path><path d="M849 -13.2L297 0L340.3 0Z" fill="#fafafa" stroke="#FFFFFF"></path><path d="M349 700L345.3 552.2L250.7 581.4Z" fill="#fbfbfb" stroke="#FFFFFF"></path><path d="M349 700L440 602.2L345.3 552.2Z" fill="#fbfbfb" stroke="#FFFFFF"></path><path d="M524 700L1220.7 714.2L719.7 701.2Z" fill="#fbfbfb" stroke="#FFFFFF"></path><path d="M1116.7 615.4L1203 700L1182.3 552.2Z" fill="#fbfbfb" stroke="#FFFFFF"></path><path d="M1182.3 552.2L1315 486.7L1244 477.4Z" fill="#fdfdfd" stroke="#FFFFFF"></path><path d="M1012.3 700L1119.7 700L1116.7 615.4Z" fill="#ffffff" stroke="#FFFFFF"></path><path d="M1220.7 714.2L1119.7 700L1012.3 700Z" fill="#fbfbfb" stroke="#FFFFFF"></path><path d="M1345.7 156.6L1282.3 106.6L1261 150.3Z" fill="#fefefe" stroke="#FFFFFF"></path><path d="M1261 150.3L1282.3 106.6L1204.7 165.6Z" fill="#fefefe" stroke="#FFFFFF"></path><path d="M1282.3 106.6L1257 27.8L1204.7 165.6Z" fill="#fefefe" stroke="#FFFFFF"></path><path d="M151.3 306.9L193 410.9L251 325.3Z" fill="#fefefe" stroke="#FFFFFF"></path><path d="M183.7 502.7L250.7 581.4L316.7 531.2Z" fill="#fdfdfd" stroke="#FFFFFF"></path><path d="M250.7 581.4L345.3 552.2L316.7 531.2Z" fill="#fafafa" stroke="#FFFFFF"></path><path d="M387.7 700L1220.7 714.2L524 700Z" fill="#fefefe" stroke="#FFFFFF"></path><path d="M1261 316.9L1326 185.6L1192 266.1Z" fill="#fdfdfd" stroke="#FFFFFF"></path><path d="M1282.3 106.6L1327.7 61.8L1257 27.8Z" fill="#fafafa" stroke="#FFFFFF"></path><path d="M1403.3 276.3L1326 185.6L1261 316.9Z" fill="#fbfbfb" stroke="#FFFFFF"></path><path d="M183.7 502.7L316.3 454.4L236.3 419.7Z" fill="#fcfcfc" stroke="#FFFFFF"></path><path d="M1326.3 463.9L1236.7 377.1L1244 477.4Z" fill="#fefefe" stroke="#FFFFFF"></path><path d="M1342.7 407.9L1344.7 360.1L1236.7 377.1Z" fill="#fafafa" stroke="#FFFFFF"></path><path d="M1363.3 546.4L1315 486.7L1182.3 552.2Z" fill="#ffffff" stroke="#FFFFFF"></path><path d="M1315 486.7L1326.3 463.9L1244 477.4Z" fill="#ffffff" stroke="#FFFFFF"></path><path d="M152.7 196.3L151.3 306.9L251 325.3Z" fill="#fcfcfc" stroke="#FFFFFF"></path><path d="M193 410.9L183.7 502.7L236.3 419.7Z" fill="#fcfcfc" stroke="#FFFFFF"></path><path d="M152.7 196.3L267.3 166.6L239 155.6Z" fill="#fcfcfc" stroke="#FFFFFF"></path><path d="M1326.3 463.9L1342.7 407.9L1236.7 377.1Z" fill="#fdfdfd" stroke="#FFFFFF"></path><path d="M1378.3 154.8L1345.7 156.6L1326 185.6Z" fill="#fafafa" stroke="#FFFFFF"></path><path d="M1326 185.6L1345.7 156.6L1261 150.3Z" fill="#fafafa" stroke="#FFFFFF"></path><path d="M216.7 0L239 155.6L279 75.8Z" fill="#fefefe" stroke="#FFFFFF"></path><path d="M849 -13.2L216.7 0L297 0Z" fill="#fdfdfd" stroke="#FFFFFF"></path><path d="M297 0L216.7 0L279 75.8Z" fill="#fafafa" stroke="#FFFFFF"></path><path d="M145.7 444.9L183.7 502.7L193 410.9Z" fill="#fefefe" stroke="#FFFFFF"></path><path d="M250.7 581.4L267.3 700L349 700Z" fill="#fdfdfd" stroke="#FFFFFF"></path><path d="M1220.7 714.2L1203 700L1119.7 700Z" fill="#fcfcfc" stroke="#FFFFFF"></path><path d="M1119.7 700L1203 700L1116.7 615.4Z" fill="#fdfdfd" stroke="#FFFFFF"></path><path d="M1345.7 156.6L1327.7 61.8L1282.3 106.6Z" fill="#fcfcfc" stroke="#FFFFFF"></path><path d="M183.7 502.7L199 562.2L250.7 581.4Z" fill="#fbfbfb" stroke="#FFFFFF"></path><path d="M1327.7 61.8L1311.3 0L1257 27.8Z" fill="#fdfdfd" stroke="#FFFFFF"></path><path d="M1257 27.8L1311.3 0L1180.7 0Z" fill="#fefefe" stroke="#FFFFFF"></path><path d="M1180.7 0L1311.3 0L1081.3 -5.2Z" fill="#fafafa" stroke="#FFFFFF"></path><path d="M1081.3 -5.2L1500 0L849 -13.2Z" fill="#fcfcfc" stroke="#FFFFFF"></path><path d="M122.3 445.4L145.7 444.9L193 410.9Z" fill="#fbfbfb" stroke="#FFFFFF"></path><path d="M183.7 502.7L159 502.4L199 562.2Z" fill="#fbfbfb" stroke="#FFFFFF"></path><path d="M122.3 445.4L193 410.9L151.3 306.9Z" fill="#ffffff" stroke="#FFFFFF"></path><path d="M145.7 444.9L159 502.4L183.7 502.7Z" fill="#fdfdfd" stroke="#FFFFFF"></path><path d="M1327.7 61.8L1321 0L1311.3 0Z" fill="#fcfcfc" stroke="#FFFFFF"></path><path d="M1311.3 0L1321 0L1081.3 -5.2Z" fill="#fbfbfb" stroke="#FFFFFF"></path><path d="M1415.7 0L1321 0L1327.7 61.8Z" fill="#fdfdfd" stroke="#FFFFFF"></path><path d="M719.7 701.2L1220.7 714.2L842 700Z" fill="#fcfcfc" stroke="#FFFFFF"></path><path d="M1315 686.2L1363.3 546.4L1182.3 552.2Z" fill="#fcfcfc" stroke="#FFFFFF"></path><path d="M1315 486.7L1363.3 546.4L1326.3 463.9Z" fill="#fcfcfc" stroke="#FFFFFF"></path><path d="M349 700L1220.7 714.2L387.7 700Z" fill="#fbfbfb" stroke="#FFFFFF"></path><path d="M1403.3 276.3L1378.3 154.8L1326 185.6Z" fill="#fafafa" stroke="#FFFFFF"></path><path d="M1345.7 156.6L1378.3 154.8L1327.7 61.8Z" fill="#fdfdfd" stroke="#FFFFFF"></path><path d="M1403.3 276.3L1261 316.9L1344.7 360.1Z" fill="#fdfdfd" stroke="#FFFFFF"></path><path d="M198.7 700L267.3 700L250.7 581.4Z" fill="#fcfcfc" stroke="#FFFFFF"></path><path d="M349 700L267.3 700L1220.7 714.2Z" fill="#fdfdfd" stroke="#FFFFFF"></path><path d="M198.7 700L250.7 581.4L199 562.2Z" fill="#fdfdfd" stroke="#FFFFFF"></path><path d="M1408.7 299.3L1403.3 276.3L1344.7 360.1Z" fill="#fbfbfb" stroke="#FFFFFF"></path><path d="M1408.7 299.3L1344.7 360.1L1422.3 362.1Z" fill="#fbfbfb" stroke="#FFFFFF"></path><path d="M145.7 444.9L122.3 445.4L159 502.4Z" fill="#fcfcfc" stroke="#FFFFFF"></path><path d="M159 502.4L131.3 535.2L199 562.2Z" fill="#fdfdfd" stroke="#FFFFFF"></path><path d="M23.3 406.7L122.3 445.4L151.3 306.9Z" fill="#fefefe" stroke="#FFFFFF"></path><path d="M99.7 156.8L102.7 200.6L152.7 196.3Z" fill="#fefefe" stroke="#FFFFFF"></path><path d="M152.7 196.3L89.3 223.1L151.3 306.9Z" fill="#fdfdfd" stroke="#FFFFFF"></path><path d="M1422.3 362.1L1342.7 407.9L1424.3 442.7Z" fill="#fbfbfb" stroke="#FFFFFF"></path><path d="M1422.3 362.1L1344.7 360.1L1342.7 407.9Z" fill="#fefefe" stroke="#FFFFFF"></path><path d="M1500 72.6L1415.7 0L1378.3 154.8Z" fill="#fbfbfb" stroke="#FFFFFF"></path><path d="M1283.3 700L1182.3 552.2L1203 700Z" fill="#ffffff" stroke="#FFFFFF"></path><path d="M216.7 0L99.7 156.8L239 155.6Z" fill="#fefefe" stroke="#FFFFFF"></path><path d="M0 163.3L89.3 223.1L102.7 200.6Z" fill="#fdfdfd" stroke="#FFFFFF"></path><path d="M102.7 200.6L89.3 223.1L152.7 196.3Z" fill="#fdfdfd" stroke="#FFFFFF"></path><path d="M122.3 445.4L131.3 535.2L159 502.4Z" fill="#fbfbfb" stroke="#FFFFFF"></path><path d="M0 549.4L131.3 535.2L122.3 445.4Z" fill="#fdfdfd" stroke="#FFFFFF"></path><path d="M1220.7 714.2L1283.3 700L1203 700Z" fill="#fbfbfb" stroke="#FFFFFF"></path><path d="M1424.3 442.7L1342.7 407.9L1326.3 463.9Z" fill="#fcfcfc" stroke="#FFFFFF"></path><path d="M1500 254.3L1378.3 154.8L1403.3 276.3Z" fill="#fafafa" stroke="#FFFFFF"></path><path d="M1363.3 546.4L1424.3 442.7L1326.3 463.9Z" fill="#ffffff" stroke="#FFFFFF"></path><path d="M1472.7 390.7L1424.3 442.7L1500 445.9Z" fill="#fcfcfc" stroke="#FFFFFF"></path><path d="M1283.3 700L1315 686.2L1182.3 552.2Z" fill="#ffffff" stroke="#FFFFFF"></path><path d="M98.7 653.2L198.7 700L199 562.2Z" fill="#fefefe" stroke="#FFFFFF"></path><path d="M267.3 700L198.7 700L1220.7 714.2Z" fill="#fefefe" stroke="#FFFFFF"></path><path d="M849 -13.2L116.3 0L216.7 0Z" fill="#ffffff" stroke="#FFFFFF"></path><path d="M216.7 0L116.3 0L99.7 156.8Z" fill="#fafafa" stroke="#FFFFFF"></path><path d="M-16.7 236.6L53.3 286.3L89.3 223.1Z" fill="#fdfdfd" stroke="#FFFFFF"></path><path d="M0 163.3L102.7 200.6L99.7 156.8Z" fill="#fbfbfb" stroke="#FFFFFF"></path><path d="M89.3 223.1L53.3 286.3L151.3 306.9Z" fill="#fbfbfb" stroke="#FFFFFF"></path><path d="M1378.3 154.8L1415.7 0L1327.7 61.8Z" fill="#fefefe" stroke="#FFFFFF"></path><path d="M1321 0L1415.7 0L1081.3 -5.2Z" fill="#fbfbfb" stroke="#FFFFFF"></path><path d="M1500 254.3L1403.3 276.3L1408.7 299.3Z" fill="#fcfcfc" stroke="#FFFFFF"></path><path d="M1500 301.1L1408.7 299.3L1422.3 362.1Z" fill="#fbfbfb" stroke="#FFFFFF"></path><path d="M1500 476.7L1424.3 442.7L1499.7 523.2Z" fill="#ffffff" stroke="#FFFFFF"></path><path d="M1424.3 442.7L1472.7 390.7L1422.3 362.1Z" fill="#ffffff" stroke="#FFFFFF"></path><path d="M116.3 0L37.3 99.8L99.7 156.8Z" fill="#fcfcfc" stroke="#FFFFFF"></path><path d="M0 358.9L23.3 406.7L53.3 286.3Z" fill="#fbfbfb" stroke="#FFFFFF"></path><path d="M53.3 286.3L23.3 406.7L151.3 306.9Z" fill="#fcfcfc" stroke="#FFFFFF"></path><path d="M131.3 535.2L98.7 653.2L199 562.2Z" fill="#ffffff" stroke="#FFFFFF"></path><path d="M1315 686.2L1424.3 600.2L1363.3 546.4Z" fill="#fbfbfb" stroke="#FFFFFF"></path><path d="M1500 445.9L1500 301.1L1472.7 390.7Z" fill="#fafafa" stroke="#FFFFFF"></path><path d="M1472.7 390.7L1500 301.1L1422.3 362.1Z" fill="#fafafa" stroke="#FFFFFF"></path><path d="M1500 301.1L1500 254.3L1408.7 299.3Z" fill="#fafafa" stroke="#FFFFFF"></path><path d="M0 583.2L98.7 653.2L131.3 535.2Z" fill="#fcfcfc" stroke="#FFFFFF"></path><path d="M98.7 653.2L126.3 700L198.7 700Z" fill="#ffffff" stroke="#FFFFFF"></path><path d="M198.7 700L126.3 700L1220.7 714.2Z" fill="#fcfcfc" stroke="#FFFFFF"></path><path d="M-16.7 236.6L0 358.9L53.3 286.3Z" fill="#fafafa" stroke="#FFFFFF"></path><path d="M23.3 406.7L0 549.4L122.3 445.4Z" fill="#fafafa" stroke="#FFFFFF"></path><path d="M0 358.9L0 378.7L23.3 406.7Z" fill="#fefefe" stroke="#FFFFFF"></path><path d="M0 378.7L0 393.1L23.3 406.7Z" fill="#fcfcfc" stroke="#FFFFFF"></path><path d="M1500 254.3L1500 138.8L1378.3 154.8Z" fill="#fcfcfc" stroke="#FFFFFF"></path><path d="M37.3 99.8L0 163.3L99.7 156.8Z" fill="#fefefe" stroke="#FFFFFF"></path><path d="M1500 476.7L1500 445.9L1424.3 442.7Z" fill="#fcfcfc" stroke="#FFFFFF"></path><path d="M0 163.3L-16.7 236.6L89.3 223.1Z" fill="#fdfdfd" stroke="#FFFFFF"></path><path d="M0 358.9L-16.7 236.6L0 378.7Z" fill="#fcfcfc" stroke="#FFFFFF"></path><path d="M0 378.7L-16.7 236.6L0 393.1Z" fill="#fafafa" stroke="#FFFFFF"></path><path d="M1499.7 523.2L1424.3 442.7L1363.3 546.4Z" fill="#fcfcfc" stroke="#FFFFFF"></path><path d="M37.3 99.8L0 112.6L0 163.3Z" fill="#ffffff" stroke="#FFFFFF"></path><path d="M0 163.3L0 112.6L-16.7 236.6Z" fill="#fbfbfb" stroke="#FFFFFF"></path><path d="M0 53.8L0 112.6L37.3 99.8Z" fill="#fcfcfc" stroke="#FFFFFF"></path><path d="M1500 138.8L1500 72.6L1378.3 154.8Z" fill="#ffffff" stroke="#FFFFFF"></path><path d="M1424.3 600.2L1499.7 523.2L1363.3 546.4Z" fill="#fdfdfd" stroke="#FFFFFF"></path><path d="M116.3 0L0 53.8L37.3 99.8Z" fill="#fefefe" stroke="#FFFFFF"></path><path d="M0 112.6L0 53.8L-16.7 236.6Z" fill="#fcfcfc" stroke="#FFFFFF"></path><path d="M1315 686.2L1422.7 700L1424.3 600.2Z" fill="#fdfdfd" stroke="#FFFFFF"></path><path d="M1424.3 600.2L1500 573.4L1499.7 523.2Z" fill="#fefefe" stroke="#FFFFFF"></path><path d="M1283.3 700L1422.7 700L1315 686.2Z" fill="#ffffff" stroke="#FFFFFF"></path><path d="M1220.7 714.2L1422.7 700L1283.3 700Z" fill="#fbfbfb" stroke="#FFFFFF"></path><path d="M-16.7 236.6L0 549.4L0 393.1Z" fill="#fbfbfb" stroke="#FFFFFF"></path><path d="M0 393.1L0 549.4L23.3 406.7Z" fill="#fafafa" stroke="#FFFFFF"></path><path d="M98.7 653.2L0 700L126.3 700Z" fill="#fafafa" stroke="#FFFFFF"></path><path d="M1500 72.6L1500 0L1415.7 0Z" fill="#fcfcfc" stroke="#FFFFFF"></path><path d="M1415.7 0L1500 0L1081.3 -5.2Z" fill="#fdfdfd" stroke="#FFFFFF"></path><path d="M1509.7 634.4L1500 573.4L1424.3 600.2Z" fill="#ffffff" stroke="#FFFFFF"></path><path d="M1499.7 523.2L1509.7 634.4L1500 476.7Z" fill="#fafafa" stroke="#FFFFFF"></path><path d="M0 53.8L0 0L-16.7 236.6Z" fill="#fcfcfc" stroke="#FFFFFF"></path><path d="M116.3 0L0 0L0 53.8Z" fill="#fefefe" stroke="#FFFFFF"></path><path d="M849 -13.2L0 0L116.3 0Z" fill="#fefefe" stroke="#FFFFFF"></path><path d="M-16.7 236.6L0 583.2L0 549.4Z" fill="#fefefe" stroke="#FFFFFF"></path><path d="M0 549.4L0 583.2L131.3 535.2Z" fill="#fafafa" stroke="#FFFFFF"></path><path d="M1500 656.2L1509.7 634.4L1424.3 600.2Z" fill="#fafafa" stroke="#FFFFFF"></path><path d="M1500 573.4L1509.7 634.4L1499.7 523.2Z" fill="#fafafa" stroke="#FFFFFF"></path><path d="M1500 476.7L1509.7 634.4L1500 445.9Z" fill="#fbfbfb" stroke="#FFFFFF"></path><path d="M1500 445.9L1509.7 634.4L1500 301.1Z" fill="#fcfcfc" stroke="#FFFFFF"></path><path d="M1500 301.1L1509.7 634.4L1500 254.3Z" fill="#fdfdfd" stroke="#FFFFFF"></path><path d="M1500 254.3L1509.7 634.4L1500 138.8Z" fill="#fcfcfc" stroke="#FFFFFF"></path><path d="M1500 138.8L1509.7 634.4L1500 72.6Z" fill="#fafafa" stroke="#FFFFFF"></path><path d="M1500 72.6L1509.7 634.4L1500 0Z" fill="#fcfcfc" stroke="#FFFFFF"></path><path d="M1422.7 700L1500 656.2L1424.3 600.2Z" fill="#fbfbfb" stroke="#FFFFFF"></path><path d="M1220.7 714.2L1500 700L1422.7 700Z" fill="#fbfbfb" stroke="#FFFFFF"></path><path d="M1422.7 700L1500 700L1500 656.2Z" fill="#fefefe" stroke="#FFFFFF"></path><path d="M1500 656.2L1500 700L1509.7 634.4Z" fill="#fefefe" stroke="#FFFFFF"></path><path d="M-16.7 236.6L0 700L0 583.2Z" fill="#fafafa" stroke="#FFFFFF"></path><path d="M0 583.2L0 700L98.7 653.2Z" fill="#fcfcfc" stroke="#FFFFFF"></path><path d="M126.3 700L0 700L1220.7 714.2Z" fill="#fafafa" stroke="#FFFFFF"></path></g></svg>